<?xml version="1.0" standalone="no"?>
<!DOCTYPE svg PUBLIC "-//W3C//DTD SVG 20010904//EN"
        "http://www.w3.org/TR/2001/REC-SVG-20010904/DTD/svg10.dtd">
<svg version="1.0" xmlns="http://www.w3.org/2000/svg"
     width="437.000000pt" height="437.000000pt" viewBox="0 0 437.000000 437.000000"
     preserveAspectRatio="xMidYMid meet">
    <metadata>
        Created by potrace 1.14, written by Peter Selinger 2001-2017
    </metadata>
    <g transform="translate(0.000000,437.000000) scale(0.100000,-0.100000)"
       fill="#000000" stroke="none">
        <path d="M827 4331 c-93 -77 -169 -174 -224 -287 l-28 -59 -3 -289 c-2 -188 1
-307 8 -340 7 -28 14 -62 16 -75 3 -14 18 -79 34 -145 41 -174 48 -212 59
-296 6 -41 13 -91 16 -110 3 -19 7 -53 9 -75 3 -22 9 -85 15 -140 6 -55 14
-125 16 -155 3 -30 8 -71 10 -90 2 -19 7 -64 10 -100 3 -36 7 -85 10 -110 3
-25 7 -74 10 -110 3 -36 8 -85 10 -110 2 -25 7 -79 11 -120 3 -41 7 -95 9
-120 3 -25 7 -85 10 -135 3 -49 8 -101 10 -115 3 -14 7 -65 10 -115 3 -49 8
-108 11 -130 2 -22 7 -71 9 -110 3 -38 8 -84 10 -102 3 -18 7 -63 10 -100 3
-37 8 -84 10 -103 2 -19 7 -56 10 -83 32 -287 49 -372 101 -482 13 -27 39 -67
58 -87 l35 -38 136 0 136 0 62 41 c72 49 214 188 279 274 89 118 178 298 268
538 18 48 34 86 35 85 2 -2 5 -33 9 -70 3 -36 8 -81 10 -100 3 -18 7 -52 10
-75 17 -140 93 -321 169 -405 23 -25 67 -59 97 -75 48 -24 66 -28 145 -27 105
0 194 27 303 92 109 65 239 203 320 339 12 21 38 64 57 97 19 32 35 60 35 62
0 2 18 41 41 86 22 46 54 117 71 158 43 105 119 341 113 350 -3 5 -2 10 3 12
11 4 53 168 46 179 -3 5 -1 9 3 9 5 0 17 42 28 92 10 51 20 95 20 98 2 8 18
104 20 120 1 8 5 22 8 30 3 8 8 35 11 59 3 24 14 89 25 145 11 55 22 126 26
156 3 30 8 62 10 70 2 8 6 29 9 45 3 17 8 46 11 65 3 19 10 60 15 90 11 67 17
102 25 155 3 23 7 50 9 62 5 24 14 78 22 131 3 20 10 63 15 96 6 32 8 61 5 64
-3 3 -1 11 5 19 6 7 9 13 5 13 -3 0 -1 11 4 25 6 16 6 26 -1 31 -6 3 -7 10 -1
17 6 7 13 39 16 72 3 33 8 74 10 90 12 79 19 131 22 145 14 85 18 152 21 387
l4 271 -33 35 c-18 20 -49 40 -68 45 -46 12 -131 6 -142 -10 -4 -7 -8 -10 -8
-6 0 14 -62 -20 -113 -62 -106 -89 -279 -322 -261 -351 4 -7 3 -9 -3 -6 -17
11 -113 -236 -127 -329 -4 -22 -14 -77 -22 -123 -9 -46 -13 -92 -11 -102 3
-11 2 -19 -2 -19 -4 0 -8 -6 -9 -12 -1 -7 -3 -31 -5 -53 -2 -22 -7 -49 -10
-60 -3 -11 -8 -41 -11 -67 -3 -27 -8 -67 -11 -90 -3 -24 -7 -59 -9 -78 -6 -60
-20 -179 -30 -260 -5 -44 -15 -131 -21 -190 -10 -101 -17 -155 -20 -159 -3 -2
0 -12 6 -22 5 -11 6 -19 1 -19 -5 0 -9 -6 -9 -12 0 -21 -14 -141 -18 -168 -3
-14 -7 -52 -10 -84 -3 -33 -8 -73 -11 -90 -3 -17 -7 -47 -9 -66 -2 -19 -6 -50
-9 -67 -9 -52 -15 -86 -20 -108 -10 -53 -23 -131 -25 -159 -1 -14 -11 -1 -15
20 -2 11 -7 55 -11 99 -3 44 -8 94 -10 110 -6 43 -15 167 -20 260 -14 250 -20
333 -30 417 -3 21 -7 56 -10 78 -3 22 -7 59 -10 82 -3 24 -8 57 -12 73 -3 17
-7 37 -8 45 -5 37 -17 97 -25 120 -15 46 -19 60 -19 63 2 12 -88 174 -113 203
-53 60 -145 89 -228 71 -96 -20 -237 -149 -357 -328 -75 -111 -168 -297 -177
-350 -1 -8 -4 -18 -8 -24 -6 -10 -56 -226 -63 -275 -16 -97 -29 -160 -33 -155
-7 6 -7 8 -15 85 -8 65 -17 135 -23 170 -2 14 -6 48 -9 75 -3 28 -9 61 -12 75
-3 14 -7 36 -9 50 -1 14 -6 45 -10 70 -4 25 -8 54 -9 65 -2 11 -10 61 -19 110
-9 50 -18 104 -21 120 -3 17 -8 46 -12 65 -3 19 -7 42 -9 50 -2 8 -6 31 -9 50
-4 19 -9 45 -11 58 -2 12 -6 34 -9 50 -7 34 -33 204 -40 257 -2 22 -9 67 -15
100 -6 33 -13 83 -16 110 -4 28 -9 52 -13 55 -3 3 -7 16 -7 30 -2 31 -11 96
-25 175 -15 84 -17 92 -34 170 -9 39 -18 85 -22 103 -3 17 -8 32 -12 32 -3 0
-7 16 -8 36 -1 20 -5 44 -9 53 -4 9 -9 26 -11 39 -6 38 -50 125 -77 153 -24
26 -28 27 -153 28 l-128 1 -48 -39z"/>
    </g>
</svg>
